<svg width="596" height="215" viewBox="0 0 596 215" fill="none" xmlns="http://www.w3.org/2000/svg">
<g clip-path="url(#clip0_151379_84078)">
<path d="M296.02 107.14H259.4V74.7998H246.36V151.54H259.4V119.42H296.02V151.54H309.06V74.7998H296.02V107.14Z M366.83 100.62C364.42 98.0998 361.59 96.1298 358.33 94.6998C355.08 93.2698 351.55 92.5598 347.75 92.5598C343.51 92.5598 339.58 93.3098 335.97 94.8098C332.35 96.3098 329.25 98.4298 326.65 101.17C324.05 103.91 322.03 107.14 320.57 110.87C319.11 114.6 318.38 118.73 318.38 123.26C318.38 128.96 319.68 134.02 322.27 138.44C324.86 142.86 328.46 146.33 333.07 148.85C337.67 151.37 342.97 152.63 348.97 152.63C351.67 152.63 354.41 152.26 357.19 151.53C359.97 150.8 362.63 149.78 365.19 148.46C367.75 147.14 369.94 145.61 371.77 143.86L365.63 135.2C362.85 137.54 360.29 139.16 357.96 140.08C355.62 140.99 353.06 141.45 350.29 141.45C346.34 141.45 342.87 140.67 339.88 139.09C336.88 137.52 334.56 135.31 332.92 132.46C331.74 130.42 331 128.12 330.66 125.55H374.08L374.19 120.73C374.26 116.71 373.66 112.98 372.38 109.55C371.1 106.12 369.26 103.14 366.84 100.62H366.83ZM338.33 105.88C340.89 104.45 344.07 103.74 347.87 103.74C350.28 103.74 352.49 104.27 354.5 105.33C356.51 106.39 358.17 107.82 359.49 109.6C360.81 111.39 361.57 113.46 361.79 115.79V116.45H331.03C331.37 114.89 331.84 113.46 332.47 112.18C333.82 109.4 335.78 107.3 338.33 105.88Z M414.19 92.9999C413.02 92.7799 411.81 92.6699 410.57 92.6699C407.87 92.6699 405.23 93.3499 402.68 94.6999C400.12 96.0499 397.86 97.8799 395.88 100.18C394.79 101.45 393.89 102.81 393.16 104.24L393.04 93.8699H380.76V151.53H393.26V120.18C393.26 118.14 393.64 116.25 394.41 114.53C395.18 112.81 396.2 111.32 397.48 110.04C398.76 108.76 400.26 107.76 401.97 107.03C403.69 106.3 405.5 105.93 407.4 105.93C408.5 105.93 409.59 106.06 410.69 106.31C411.79 106.57 412.77 106.88 413.65 107.24L416.94 93.7599C416.28 93.4699 415.37 93.2099 414.2 92.9899L414.19 92.9999Z M459.3 96.5599C454.81 93.9699 449.74 92.6699 444.12 92.6699C438.5 92.6699 433.34 93.9699 428.88 96.5599C424.42 99.1599 420.89 102.7 418.3 107.19C415.7 111.68 414.41 116.82 414.41 122.59C414.41 128.36 415.71 133.61 418.3 138.1C420.89 142.59 424.42 146.14 428.88 148.73C433.34 151.33 438.42 152.62 444.12 152.62C449.82 152.62 454.81 151.32 459.3 148.73C463.79 146.14 467.34 142.59 469.93 138.1C472.52 133.61 473.82 128.44 473.82 122.59C473.82 116.74 472.52 111.68 469.93 107.19C467.34 102.7 463.79 99.1499 459.3 96.5599ZM459.02 132.25C457.56 135.1 455.53 137.35 452.94 138.99C450.34 140.63 447.4 141.46 444.12 141.46C440.84 141.46 437.89 140.64 435.3 138.99C432.7 137.35 430.66 135.1 429.16 132.25C427.66 129.4 426.95 126.18 427.02 122.6C426.95 119.02 427.66 115.82 429.16 113.01C430.66 110.2 432.7 107.97 435.3 106.32C437.89 104.68 440.84 103.85 444.12 103.85C447.4 103.85 450.35 104.65 452.94 106.26C455.53 107.87 457.56 110.1 459.02 112.95C460.48 115.8 461.18 119.02 461.1 122.6C461.17 126.18 460.48 129.4 459.02 132.25Z M522.44 95.2499C519.48 93.5299 515.81 92.6699 511.42 92.6699C508.35 92.6699 505.35 93.3499 502.43 94.6999C499.51 96.0499 496.99 97.8099 494.87 99.9599C494.07 100.78 493.36 101.63 492.76 102.5L492.68 93.8699H480.51V151.53H492.9V116.67C492.9 114.84 493.27 113.16 494 111.63C494.73 110.1 495.74 108.73 497.01 107.52C498.29 106.31 499.79 105.38 501.5 104.73C503.22 104.07 505.13 103.74 507.26 103.74C509.82 103.59 511.97 104 513.73 104.95C515.48 105.9 516.78 107.4 517.62 109.44C518.46 111.49 518.88 114.08 518.88 117.22V151.53H531.27V116.34C531.27 111.01 530.54 106.58 529.08 103.08C527.62 99.5699 525.41 96.9599 522.45 95.2399L522.44 95.2499Z M583 70.4199V100.73C582.05 99.6599 580.95 98.6299 579.66 97.6599C577.58 96.0899 575.22 94.8699 572.59 93.9899C569.96 93.1099 567.22 92.6699 564.37 92.6699C559.25 92.6699 554.65 93.9699 550.56 96.5599C546.47 99.1599 543.25 102.7 540.91 107.19C538.57 111.68 537.4 116.85 537.4 122.7C537.4 128.55 538.59 133.61 540.96 138.1C543.33 142.59 546.57 146.14 550.66 148.73C554.75 151.33 559.43 152.62 564.69 152.62C567.32 152.62 569.88 152.2 572.36 151.36C574.84 150.52 577.05 149.39 578.99 147.96C580.67 146.72 582.05 145.37 583.15 143.91L583.21 151.52H595.49V70.3999H582.99L583 70.4199ZM581.3 132.68C579.87 135.6 577.92 137.89 575.44 139.53C572.95 141.17 570.03 142 566.67 142C563.31 142 560.49 141.18 558.01 139.53C555.52 137.89 553.57 135.6 552.15 132.68C550.72 129.76 550.01 126.43 550.01 122.7C550.01 118.97 550.72 115.56 552.15 112.67C553.58 109.78 555.53 107.5 558.01 105.82C560.49 104.14 563.38 103.3 566.67 103.3C569.96 103.3 572.95 104.14 575.44 105.82C577.92 107.5 579.88 109.78 581.3 112.67C582.73 115.56 583.44 118.9 583.44 122.7C583.44 126.5 582.73 129.75 581.3 132.68Z" fill="#FFFFFF"></path>
<path d="M20.7601 49.15C10.8701 62.28 4.27007 77.58 1.49007 93.78C-8.10993 149.89 29.5901 203.17 85.7001 212.78C141.81 222.38 199.26 182.92 204.77 124.56C208.57 84.33 184.98 68.43 178.68 68.02C185.68 73.77 193.55 86.45 191.6 111.53C189.02 144.68 161.87 193.6 99.9901 193.44C43.7401 193.3 3.77007 145.5 11.2201 88.23C17.7301 38.34 49.2001 20.08 70.5501 13.21C56.7701 17.64 38.9601 25.07 20.7701 49.12V49.16L20.7601 49.15Z" fill="url(#paint0_linear_151379_84078)"></path>
<path d="M20.7601 49.15C10.8701 62.28 4.27007 77.58 1.49007 93.78C-8.10993 149.89 29.5901 203.17 85.7001 212.78C141.81 222.38 199.26 182.92 204.77 124.56C208.57 84.33 184.98 68.43 178.68 68.02C185.68 73.77 193.55 86.45 191.6 111.53C189.02 144.68 161.87 193.6 99.9901 193.44C43.7401 193.3 3.77007 145.5 11.2201 88.23C17.7301 38.34 49.2001 20.08 70.5501 13.21C56.7701 17.64 38.9601 25.07 20.7701 49.12V49.16L20.7601 49.15Z" fill="url(#paint1_radial_151379_84078)"></path>
<path d="M20.7601 49.15C10.8701 62.28 4.27007 77.58 1.49007 93.78C-8.10993 149.89 29.5901 203.17 85.7001 212.78C141.81 222.38 199.26 182.92 204.77 124.56C208.57 84.33 184.98 68.43 178.68 68.02C185.68 73.77 193.55 86.45 191.6 111.53C189.02 144.68 161.87 193.6 99.9901 193.44C43.7401 193.3 3.77007 145.5 11.2201 88.23C17.7301 38.34 49.2001 20.08 70.5501 13.21C56.7701 17.64 38.9601 25.07 20.7701 49.12V49.16L20.7601 49.15Z" fill="url(#paint2_radial_151379_84078)"></path>
<path d="M20.7601 49.15C10.8701 62.28 4.27007 77.58 1.49007 93.78C-8.10993 149.89 29.5901 203.17 85.7001 212.78C141.81 222.38 199.26 182.92 204.77 124.56C208.57 84.33 184.98 68.43 178.68 68.02C185.68 73.77 193.55 86.45 191.6 111.53C189.02 144.68 161.87 193.6 99.9901 193.44C43.7401 193.3 3.77007 145.5 11.2201 88.23C17.7301 38.34 49.2001 20.08 70.5501 13.21C56.7701 17.64 38.9601 25.07 20.7701 49.12V49.16L20.7601 49.15Z" fill="url(#paint3_radial_151379_84078)"></path>
<path d="M80.53 135.21C60.65 135.15 43.93 118.72 43.93 91.2499C43.93 51.5199 77.19 38.1899 94.76 35.8199C121.29 32.2299 161.51 34.6099 188.23 36.5099C189.26 36.5799 189.54 35.1599 188.54 34.8999C171.23 30.5699 142.99 23.8899 136.28 22.1299C132.01 21.0099 128.76 17.9199 126.47 14.1499C107.21 -17.6001 56.34 14.1499 15.34 13.1299C14.77 13.1199 14.71 13.9799 15.27 14.0699C35.46 17.3299 70.56 13.2099 70.56 13.2099C70.56 13.2099 36.51 21.1099 26.63 59.8499C24.6 67.8199 23.09 79.4899 25.74 93.5299C30.69 119.76 53.7 137.43 80.54 135.21H80.53Z" fill="url(#paint4_linear_151379_84078)"></path>
<path d="M80.53 135.21C60.65 135.15 43.93 118.72 43.93 91.2499C43.93 51.5199 77.19 38.1899 94.76 35.8199C121.29 32.2299 161.51 34.6099 188.23 36.5099C189.26 36.5799 189.54 35.1599 188.54 34.8999C171.23 30.5699 142.99 23.8899 136.28 22.1299C132.01 21.0099 128.76 17.9199 126.47 14.1499C107.21 -17.6001 56.34 14.1499 15.34 13.1299C14.77 13.1199 14.71 13.9799 15.27 14.0699C35.46 17.3299 70.56 13.2099 70.56 13.2099C70.56 13.2099 36.51 21.1099 26.63 59.8499C24.6 67.8199 23.09 79.4899 25.74 93.5299C30.69 119.76 53.7 137.43 80.54 135.21H80.53Z" fill="url(#paint5_radial_151379_84078)"></path>
<path d="M80.53 135.21C60.65 135.15 43.93 118.72 43.93 91.2499C43.93 51.5199 77.19 38.1899 94.76 35.8199C121.29 32.2299 161.51 34.6099 188.23 36.5099C189.26 36.5799 189.54 35.1599 188.54 34.8999C171.23 30.5699 142.99 23.8899 136.28 22.1299C132.01 21.0099 128.76 17.9199 126.47 14.1499C107.21 -17.6001 56.34 14.1499 15.34 13.1299C14.77 13.1199 14.71 13.9799 15.27 14.0699C35.46 17.3299 70.56 13.2099 70.56 13.2099C70.56 13.2099 36.51 21.1099 26.63 59.8499C24.6 67.8199 23.09 79.4899 25.74 93.5299C30.69 119.76 53.7 137.43 80.54 135.21H80.53Z" fill="url(#paint6_radial_151379_84078)"></path>
<path d="M70.5501 13.21C39.9401 22.32 14.4501 51.06 16.8501 90.87C18.5201 118.66 32.1901 153.52 78.9801 157.24C105.47 159.35 116.8 145.28 120.15 136.61C131.67 106.77 103.83 94.14 99.4001 100.43C113.88 111.45 105.09 134.81 80.1901 135.21C9.02012 136.36 7.04012 33.31 70.5501 13.21Z" fill="url(#paint7_linear_151379_84078)"></path>
<path d="M70.5501 13.21C39.9401 22.32 14.4501 51.06 16.8501 90.87C18.5201 118.66 32.1901 153.52 78.9801 157.24C105.47 159.35 116.8 145.28 120.15 136.61C131.67 106.77 103.83 94.14 99.4001 100.43C113.88 111.45 105.09 134.81 80.1901 135.21C9.02012 136.36 7.04012 33.31 70.5501 13.21Z" fill="url(#paint8_radial_151379_84078)"></path>
<path d="M70.5501 13.21C39.9401 22.32 14.4501 51.06 16.8501 90.87C18.5201 118.66 32.1901 153.52 78.9801 157.24C105.47 159.35 116.8 145.28 120.15 136.61C131.67 106.77 103.83 94.14 99.4001 100.43C113.88 111.45 105.09 134.81 80.1901 135.21C9.02012 136.36 7.04012 33.31 70.5501 13.21Z" fill="url(#paint9_radial_151379_84078)"></path>
<path d="M70.5501 13.21C39.9401 22.32 14.4501 51.06 16.8501 90.87C18.5201 118.66 32.1901 153.52 78.9801 157.24C105.47 159.35 116.8 145.28 120.15 136.61C131.67 106.77 103.83 94.14 99.4001 100.43C113.88 111.45 105.09 134.81 80.1901 135.21C9.02012 136.36 7.04012 33.31 70.5501 13.21Z" fill="url(#paint10_linear_151379_84078)"></path>
<path d="M158.44 60.34C110.12 42.43 83.5399 75.24 82.7399 82.73C110.34 67.21 145.79 98.3 128.05 133.22C120.34 148.4 102.63 158.71 79.3299 157.22C65.1999 156.32 52.1099 151.46 41.7099 142.9C28.0299 131.84 18.6099 114.69 17.0199 92.27C14.0099 49.92 41.4799 22.83 68.6799 13.8C69.2999 13.59 69.9199 13.38 70.5499 13.21C64.1299 15.02 57.0599 17.99 48.3299 23.67C31.9899 34.48 13.8199 53.88 8.72985 85.32C1.12985 143.92 39.6499 186.51 86.1599 193.62C109.07 196.97 133.81 191.94 155.76 176.27C168.86 166.92 178.86 153.81 185.11 138.99C205.51 90.6 172.93 65.71 158.44 60.34Z" fill="url(#paint11_linear_151379_84078)"></path>
<path d="M158.44 60.34C110.12 42.43 83.5399 75.24 82.7399 82.73C110.34 67.21 145.79 98.3 128.05 133.22C120.34 148.4 102.63 158.71 79.3299 157.22C65.1999 156.32 52.1099 151.46 41.7099 142.9C28.0299 131.84 18.6099 114.69 17.0199 92.27C14.0099 49.92 41.4799 22.83 68.6799 13.8C69.2999 13.59 69.9199 13.38 70.5499 13.21C64.1299 15.02 57.0599 17.99 48.3299 23.67C31.9899 34.48 13.8199 53.88 8.72985 85.32C1.12985 143.92 39.6499 186.51 86.1599 193.62C109.07 196.97 133.81 191.94 155.76 176.27C168.86 166.92 178.86 153.81 185.11 138.99C205.51 90.6 172.93 65.71 158.44 60.34Z" fill="url(#paint12_linear_151379_84078)"></path>
<path d="M158.44 60.34C110.12 42.43 83.5399 75.24 82.7399 82.73C110.34 67.21 145.79 98.3 128.05 133.22C120.34 148.4 102.63 158.71 79.3299 157.22C65.1999 156.32 52.1099 151.46 41.7099 142.9C28.0299 131.84 18.6099 114.69 17.0199 92.27C14.0099 49.92 41.4799 22.83 68.6799 13.8C69.2999 13.59 69.9199 13.38 70.5499 13.21C64.1299 15.02 57.0599 17.99 48.3299 23.67C31.9899 34.48 13.8199 53.88 8.72985 85.32C1.12985 143.92 39.6499 186.51 86.1599 193.62C109.07 196.97 133.81 191.94 155.76 176.27C168.86 166.92 178.86 153.81 185.11 138.99C205.51 90.6 172.93 65.71 158.44 60.34Z" fill="url(#paint13_linear_151379_84078)"></path>
<path d="M158.44 60.34C110.12 42.43 83.5399 75.24 82.7399 82.73C110.34 67.21 145.79 98.3 128.05 133.22C120.34 148.4 102.63 158.71 79.3299 157.22C65.1999 156.32 52.1099 151.46 41.7099 142.9C28.0299 131.84 18.6099 114.69 17.0199 92.27C14.0099 49.92 41.4799 22.83 68.6799 13.8C69.2999 13.59 69.9199 13.38 70.5499 13.21C64.1299 15.02 57.0599 17.99 48.3299 23.67C31.9899 34.48 13.8199 53.88 8.72985 85.32C1.12985 143.92 39.6499 186.51 86.1599 193.62C109.07 196.97 133.81 191.94 155.76 176.27C168.86 166.92 178.86 153.81 185.11 138.99C205.51 90.6 172.93 65.71 158.44 60.34Z" fill="url(#paint14_radial_151379_84078)"></path>
<path d="M158.44 60.34C110.12 42.43 83.5399 75.24 82.7399 82.73C110.34 67.21 145.79 98.3 128.05 133.22C120.34 148.4 102.63 158.71 79.3299 157.22C65.1999 156.32 52.1099 151.46 41.7099 142.9C28.0299 131.84 18.6099 114.69 17.0199 92.27C14.0099 49.92 41.4799 22.83 68.6799 13.8C69.2999 13.59 69.9199 13.38 70.5499 13.21C64.1299 15.02 57.0599 17.99 48.3299 23.67C31.9899 34.48 13.8199 53.88 8.72985 85.32C1.12985 143.92 39.6499 186.51 86.1599 193.62C109.07 196.97 133.81 191.94 155.76 176.27C168.86 166.92 178.86 153.81 185.11 138.99C205.51 90.6 172.93 65.71 158.44 60.34Z" fill="url(#paint15_radial_151379_84078)"></path>
<path d="M70.5501 13.21C39.9401 22.32 14.4501 51.06 16.8501 90.87C18.5201 118.66 32.1901 153.52 78.9801 157.24C105.47 159.35 116.8 145.28 120.15 136.61C131.67 106.77 103.83 94.14 99.4001 100.43C113.88 111.45 105.09 134.81 80.1901 135.21C9.02012 136.36 7.04012 33.31 70.5501 13.21Z" fill="url(#paint16_radial_151379_84078)"></path>
<path d="M158.44 60.34C110.12 42.43 83.5399 75.24 82.7399 82.73C110.34 67.21 145.79 98.3 128.05 133.22C120.34 148.4 102.63 158.71 79.3299 157.22C65.1999 156.32 52.1099 151.46 41.7099 142.9C28.0299 131.84 18.6099 114.69 17.0199 92.27C14.0099 49.92 41.4799 22.83 68.6799 13.8C69.2999 13.59 69.9199 13.38 70.5499 13.21C64.1299 15.02 57.0599 17.99 48.3299 23.67C31.9899 34.48 13.8199 53.88 8.72985 85.32C1.12985 143.92 39.6499 186.51 86.1599 193.62C109.07 196.97 133.81 191.94 155.76 176.27C168.86 166.92 178.86 153.81 185.11 138.99C205.51 90.6 172.93 65.71 158.44 60.34Z" fill="url(#paint17_radial_151379_84078)"></path>
<path d="M158.44 60.34C110.12 42.43 83.5399 75.24 82.7399 82.73C110.34 67.21 145.79 98.3 128.05 133.22C120.34 148.4 102.63 158.71 79.3299 157.22C65.1999 156.32 52.1099 151.46 41.7099 142.9C28.0299 131.84 18.6099 114.69 17.0199 92.27C14.0099 49.92 41.4799 22.83 68.6799 13.8C69.2999 13.59 69.9199 13.38 70.5499 13.21C64.1299 15.02 57.0599 17.99 48.3299 23.67C31.9899 34.48 13.8199 53.88 8.72985 85.32C1.12985 143.92 39.6499 186.51 86.1599 193.62C109.07 196.97 133.81 191.94 155.76 176.27C168.86 166.92 178.86 153.81 185.11 138.99C205.51 90.6 172.93 65.71 158.44 60.34Z" fill="url(#paint18_radial_151379_84078)"></path>
<path d="M158.44 60.34C110.12 42.43 83.5399 75.24 82.7399 82.73C110.34 67.21 145.79 98.3 128.05 133.22C120.34 148.4 102.63 158.71 79.3299 157.22C65.1999 156.32 52.1099 151.46 41.7099 142.9C28.0299 131.84 18.6099 114.69 17.0199 92.27C14.0099 49.92 41.4799 22.83 68.6799 13.8C69.2999 13.59 69.9199 13.38 70.5499 13.21C64.1299 15.02 57.0599 17.99 48.3299 23.67C31.9899 34.48 13.8199 53.88 8.72985 85.32C1.12985 143.92 39.6499 186.51 86.1599 193.62C109.07 196.97 133.81 191.94 155.76 176.27C168.86 166.92 178.86 153.81 185.11 138.99C205.51 90.6 172.93 65.71 158.44 60.34Z" fill="url(#paint19_linear_151379_84078)"></path>
</g>
<defs>
<linearGradient id="paint0_linear_151379_84078" x1="81.1301" y1="11.61" x2="121.69" y2="206.99" gradientUnits="userSpaceOnUse">
<stop stop-color="#119EF0"></stop>
<stop offset="0.34" stop-color="#348BF6"></stop>
<stop offset="0.83" stop-color="#0F3F99"></stop>
</linearGradient>
<radialGradient id="paint1_radial_151379_84078" cx="0" cy="0" r="1" gradientUnits="userSpaceOnUse" gradientTransform="translate(-10.4299 79.31) scale(180.16 180.16)">
<stop offset="0.13" stop-color="#00E4FF"></stop>
<stop offset="0.25" stop-color="#1ED1FC"></stop>
<stop offset="0.52" stop-color="#6BA4F6"></stop>
<stop offset="1" stop-color="#005AD2" stop-opacity="0"></stop>
</radialGradient>
<radialGradient id="paint2_radial_151379_84078" cx="0" cy="0" r="1" gradientUnits="userSpaceOnUse" gradientTransform="translate(14.2501 63.24) scale(109.37 109.37)">
<stop stop-color="#11AEF0"></stop>
<stop offset="0.35" stop-color="#11A4F0" stop-opacity="0.43"></stop>
<stop offset="0.62" stop-color="#119EF0" stop-opacity="0"></stop>
<stop offset="1" stop-color="#6BA4F6" stop-opacity="0"></stop>
</radialGradient>
<radialGradient id="paint3_radial_151379_84078" cx="0" cy="0" r="1" gradientUnits="userSpaceOnUse" gradientTransform="translate(140.14 89.71) scale(180.16 180.16)">
<stop offset="0.14" stop-color="#00E4FF"></stop>
<stop offset="0.21" stop-color="#0BD0F6" stop-opacity="0.91"></stop>
<stop offset="0.34" stop-color="#2AA0E1" stop-opacity="0.68"></stop>
<stop offset="0.44" stop-color="#417CD1" stop-opacity="0.5"></stop>
<stop offset="0.61" stop-color="#1142A8" stop-opacity="0"></stop>
</radialGradient>
<linearGradient id="paint4_linear_151379_84078" x1="74.51" y1="158.67" x2="106.76" y2="1.52993" gradientUnits="userSpaceOnUse">
<stop stop-color="#FF4070"></stop>
<stop offset="0.16" stop-color="#1142A8"></stop>
<stop offset="0.42" stop-color="#1C4DC2"></stop>
<stop offset="0.97" stop-color="#3364F6"></stop>
</linearGradient>
<radialGradient id="paint5_radial_151379_84078" cx="0" cy="0" r="1" gradientUnits="userSpaceOnUse" gradientTransform="translate(78.66 132.25) scale(78.03 78.03)">
<stop stop-color="#FF4070"></stop>
<stop offset="0.63" stop-color="#FF4070" stop-opacity="0"></stop>
</radialGradient>
<radialGradient id="paint6_radial_151379_84078" cx="0" cy="0" r="1" gradientUnits="userSpaceOnUse" gradientTransform="translate(158.79 49.2799) scale(150.96 150.96)">
<stop stop-color="#00B3ED"></stop>
<stop offset="1" stop-color="#3364F6" stop-opacity="0"></stop>
</radialGradient>
<linearGradient id="paint7_linear_151379_84078" x1="96.9601" y1="151.11" x2="26.4401" y2="32.58" gradientUnits="userSpaceOnUse">
<stop offset="0.32" stop-color="#1142AD"></stop>
<stop offset="0.54" stop-color="#1F60CB"></stop>
<stop offset="0.83" stop-color="#348BF6"></stop>
</linearGradient>
<radialGradient id="paint8_radial_151379_84078" cx="0" cy="0" r="1" gradientUnits="userSpaceOnUse" gradientTransform="translate(50.1801 85.73) scale(140.72 140.72)">
<stop stop-color="#119EF0" stop-opacity="0.6"></stop>
<stop offset="0.47" stop-color="#1C52C2" stop-opacity="0"></stop>
</radialGradient>
<radialGradient id="paint9_radial_151379_84078" cx="0" cy="0" r="1" gradientUnits="userSpaceOnUse" gradientTransform="translate(67.3101 114.99) scale(140.72 140.72)">
<stop stop-color="#119EF0" stop-opacity="0.6"></stop>
<stop offset="0.48" stop-color="#1C52C2" stop-opacity="0"></stop>
</radialGradient>
<linearGradient id="paint10_linear_151379_84078" x1="47.4001" y1="3.89996" x2="61.5001" y2="69.23" gradientUnits="userSpaceOnUse">
<stop offset="0.23" stop-color="#348BF6"></stop>
<stop offset="1" stop-color="#005AD2" stop-opacity="0"></stop>
</linearGradient>
<linearGradient id="paint11_linear_151379_84078" x1="142.26" y1="182.08" x2="50.5599" y2="29.43" gradientUnits="userSpaceOnUse">
<stop offset="0.28" stop-color="#1142A8"></stop>
<stop offset="0.5" stop-color="#1C59C0"></stop>
<stop offset="0.89" stop-color="#348BF6"></stop>
<stop offset="1" stop-color="#119EF0"></stop>
</linearGradient>
<linearGradient id="paint12_linear_151379_84078" x1="53.1499" y1="74.66" x2="202.15" y2="203.57" gradientUnits="userSpaceOnUse">
<stop offset="0.42" stop-color="#1C52C2" stop-opacity="0"></stop>
<stop offset="0.47" stop-color="#1B54C3" stop-opacity="0.03"></stop>
<stop offset="0.54" stop-color="#195CC6" stop-opacity="0.11"></stop>
<stop offset="0.63" stop-color="#1568CB" stop-opacity="0.23"></stop>
<stop offset="0.73" stop-color="#1079D3" stop-opacity="0.41"></stop>
<stop offset="0.83" stop-color="#0A8FDD" stop-opacity="0.64"></stop>
<stop offset="0.94" stop-color="#02AAE9" stop-opacity="0.91"></stop>
<stop offset="0.97" stop-color="#00B3ED"></stop>
</linearGradient>
<linearGradient id="paint13_linear_151379_84078" x1="4.44985" y1="102.11" x2="226.01" y2="107.08" gradientUnits="userSpaceOnUse">
<stop offset="0.44" stop-color="#1C52C2" stop-opacity="0"></stop>
<stop offset="0.54" stop-color="#1763C9" stop-opacity="0.18"></stop>
<stop offset="0.78" stop-color="#0A8EDC" stop-opacity="0.62"></stop>
<stop offset="0.97" stop-color="#00B3ED"></stop>
</linearGradient>
<radialGradient id="paint14_radial_151379_84078" cx="0" cy="0" r="1" gradientUnits="userSpaceOnUse" gradientTransform="translate(87.1599 100.48) scale(94.62 94.62)">
<stop stop-color="#119EF0"></stop>
<stop offset="0.28" stop-color="#119EF0" stop-opacity="0.66"></stop>
<stop offset="0.53" stop-color="#119EF0" stop-opacity="0.38"></stop>
<stop offset="0.74" stop-color="#119EF0" stop-opacity="0.17"></stop>
<stop offset="0.9" stop-color="#119EF0" stop-opacity="0.05"></stop>
<stop offset="0.99" stop-color="#119EF0" stop-opacity="0"></stop>
</radialGradient>
<radialGradient id="paint15_radial_151379_84078" cx="0" cy="0" r="1" gradientUnits="userSpaceOnUse" gradientTransform="translate(14.8399 88.21) scale(87.37 87.37)">
<stop stop-color="#119EF0"></stop>
<stop offset="0.07" stop-color="#119EF0" stop-opacity="0.88"></stop>
<stop offset="0.2" stop-color="#119EF0" stop-opacity="0.65"></stop>
<stop offset="0.35" stop-color="#119EF0" stop-opacity="0.45"></stop>
<stop offset="0.48" stop-color="#119EF0" stop-opacity="0.29"></stop>
<stop offset="0.62" stop-color="#119EF0" stop-opacity="0.16"></stop>
<stop offset="0.75" stop-color="#119EF0" stop-opacity="0.07"></stop>
<stop offset="0.88" stop-color="#119EF0" stop-opacity="0.02"></stop>
<stop offset="1" stop-color="#119EF0" stop-opacity="0"></stop>
</radialGradient>
<radialGradient id="paint16_radial_151379_84078" cx="0" cy="0" r="1" gradientUnits="userSpaceOnUse" gradientTransform="translate(102.03 91.12) scale(94.49 94.49)">
<stop stop-color="#FF4070"></stop>
<stop offset="0.06" stop-color="#F83F76"></stop>
<stop offset="0.14" stop-color="#E63D86"></stop>
<stop offset="0.24" stop-color="#C83BA2"></stop>
<stop offset="0.35" stop-color="#9F37C9"></stop>
<stop offset="0.47" stop-color="#6B33FA"></stop>
<stop offset="0.48" stop-color="#6633FF"></stop>
<stop offset="0.49" stop-color="#6135FC" stop-opacity="0.95"></stop>
<stop offset="0.65" stop-color="#394EE0" stop-opacity="0.44"></stop>
<stop offset="0.75" stop-color="#1F5DCF" stop-opacity="0.12"></stop>
<stop offset="0.8" stop-color="#1664C9" stop-opacity="0"></stop>
</radialGradient>
<radialGradient id="paint17_radial_151379_84078" cx="0" cy="0" r="1" gradientUnits="userSpaceOnUse" gradientTransform="translate(143.86 15.7) scale(91.32 91.32)">
<stop stop-color="#FF4070"></stop>
<stop offset="0.41" stop-color="#FF4070" stop-opacity="0.49"></stop>
<stop offset="0.71" stop-color="#FF4070" stop-opacity="0.14"></stop>
<stop offset="0.85" stop-color="#FF4070" stop-opacity="0"></stop>
</radialGradient>
<radialGradient id="paint18_radial_151379_84078" cx="0" cy="0" r="1" gradientUnits="userSpaceOnUse" gradientTransform="translate(98.6999 88.38) scale(170.24 170.24)">
<stop offset="0.04" stop-color="#FF4070"></stop>
<stop offset="0.25" stop-color="#B139B8" stop-opacity="0.49"></stop>
<stop offset="0.41" stop-color="#7B34EB" stop-opacity="0.14"></stop>
<stop offset="0.48" stop-color="#6633FF" stop-opacity="0"></stop>
</radialGradient>
<linearGradient id="paint19_linear_151379_84078" x1="78.8299" y1="6.97996" x2="90.4599" y2="62.88" gradientUnits="userSpaceOnUse">
<stop offset="0.07" stop-color="#348BF6"></stop>
<stop offset="0.08" stop-color="#348BF6" stop-opacity="0.99"></stop>
<stop offset="0.33" stop-color="#348BF6" stop-opacity="0.64"></stop>
<stop offset="0.55" stop-color="#348BF6" stop-opacity="0.37"></stop>
<stop offset="0.73" stop-color="#348BF6" stop-opacity="0.17"></stop>
<stop offset="0.86" stop-color="#348BF6" stop-opacity="0.05"></stop>
<stop offset="0.94" stop-color="#348BF6" stop-opacity="0"></stop>
</linearGradient>
<clipPath id="clip0_151379_84078">
<rect width="595.5" height="214.22" fill="white"></rect>
</clipPath>
</defs>
</svg>